<svg xmlns="http://www.w3.org/2000/svg" width="240" height="240" viewBox="0 0 240 240">
  <defs>
    <linearGradient id="jar-body" x1="50%" x2="50%" y1="0%" y2="100%">
      <stop offset="0%" stop-color="#FFFFFF" />
      <stop offset="100%" stop-color="#F2F2F2" />
    </linearGradient>
    <linearGradient id="jar-lid" x1="0%" x2="0%" y1="0%" y2="100%">
      <stop offset="0%" stop-color="#E1D1B2" />
      <stop offset="100%" stop-color="#C8AC7A" />
    </linearGradient>
    <linearGradient id="jar-shadow" x1="50%" x2="50%" y1="0%" y2="100%">
      <stop offset="0%" stop-color="#E0E7FF" stop-opacity="0.35" />
      <stop offset="100%" stop-color="#C7D2FE" stop-opacity="0.55" />
    </linearGradient>
    <filter id="shadow" x="-40%" y="-40%" width="180%" height="180%">
      <feGaussianBlur in="SourceAlpha" stdDeviation="6" result="blur" />
      <feOffset dy="8" result="offsetBlur" />
      <feComponentTransfer>
        <feFuncA slope="0.18" type="linear" />
      </feComponentTransfer>
      <feMerge>
        <feMergeNode in="offsetBlur" />
        <feMergeNode in="SourceGraphic" />
      </feMerge>
    </filter>
  </defs>
  <g fill="none" stroke="none" stroke-width="1">
    <ellipse cx="120" cy="186" rx="72" ry="20" fill="url(#jar-shadow)" opacity="0.45" />
    <g filter="url(#shadow)">
      <path
        d="M70 82h100c8.837 0 16 7.163 16 16v50c0 22.091-22.386 40-50 40H104c-27.614 0-50-17.909-50-40V98c0-8.837 7.163-16 16-16z"
        fill="url(#jar-body)"
      />
      <path
        d="M64 106h112v26c0 22.091-22.386 40-50 40h-12c-27.614 0-50-17.909-50-40v-26z"
        fill="#F9FAFB"
      />
      <path
        d="M86 72h68a6 6 0 0 1 6 6v14H80V78a6 6 0 0 1 6-6z"
        fill="url(#jar-lid)"
      />
      <path
        d="M86 82h68v6H86z"
        fill="rgba(255,255,255,0.45)"
      />
      <path
        d="M134 44l44 14c4.42 1.406 4.285 7.613-.217 8.81l-26.3 6.96-43.482-11.35z"
        fill="url(#jar-lid)"
      />
      <path
        d="M128 60l-18-4.62 6.8-11.44z"
        fill="#F5E7C6"
        opacity="0.6"
      />
      <rect x="86" y="120" width="68" height="4" rx="2" fill="#FBBF24" opacity="0.6" />
      <rect x="86" y="132" width="68" height="4" rx="2" fill="#FCD34D" opacity="0.35" />
    </g>
  </g>
</svg>
